<svg width="16" height="18" viewBox="0 0 16 18" fill="none" xmlns="http://www.w3.org/2000/svg">
<path fill-rule="evenodd" clip-rule="evenodd" d="M9.32873 0.514968C9.3873 0.56703 9.44276 0.62249 9.49482 0.681059L15.4948 7.43106C15.8202 7.79716 16 8.26996 16 8.75979V15.9994C16 17.104 15.1046 17.9994 14 17.9994H10.002C10.0013 17.9994 10.0007 17.9994 10 17.9994H6C5.99934 17.9994 5.99868 17.9994 5.99803 17.9994H2C0.89543 17.9994 0 17.104 0 15.9994V8.75979C0 8.26996 0.179757 7.79716 0.505181 7.43106L6.50518 0.681059C7.23902 -0.144506 8.50316 -0.218868 9.32873 0.514968ZM7 15.9994H9V11.9994H7V15.9994ZM11 15.9994V10.9994C11 10.4471 10.5523 9.99939 10 9.99939H6C5.44772 9.99939 5 10.4471 5 10.9994V15.9994H2V8.75979L8 2.00979L14 8.75979V15.9994H11Z" fill="#7E84A3"/>
</svg>
