<svg width="16" height="14" viewBox="0 0 16 14" fill="none" xmlns="http://www.w3.org/2000/svg">
<path fill-rule="evenodd" clip-rule="evenodd" d="M11 10C11.7403 10 12.3866 10.4022 12.7324 10.9999L15 11C15.5523 11 16 11.4477 16 12C16 12.5523 15.5523 13 15 13L12.7318 13.0011C12.3858 13.5983 11.7398 14 11 14C10.2602 14 9.61415 13.5983 9.26819 13.0011L1 13C0.447715 13 0 12.5523 0 12C0 11.4477 0.447715 11 1 11L9.26761 10.9999C9.61343 10.4022 10.2597 10 11 10ZM5 5C5.74025 5 6.38657 5.40217 6.73239 5.99993L15 6C15.5523 6 16 6.44772 16 7C16 7.55228 15.5523 8 15 8L6.73181 8.00108C6.38585 8.59828 5.73984 9 5 9C4.26016 9 3.61415 8.59828 3.26819 8.00108L1 8C0.447715 8 0 7.55228 0 7C0 6.44772 0.447715 6 1 6L3.26761 5.99993C3.61343 5.40217 4.25975 5 5 5ZM11 0C11.7403 0 12.3866 0.402166 12.7324 0.999928L15 1C15.5523 1 16 1.44772 16 2C16 2.55228 15.5523 3 15 3L12.7318 3.00108C12.3858 3.59828 11.7398 4 11 4C10.2602 4 9.61415 3.59828 9.26819 3.00108L1 3C0.447715 3 0 2.55228 0 2C0 1.44772 0.447715 1 1 1L9.26761 0.999928C9.61343 0.402166 10.2597 0 11 0Z" fill="#fff"/>
</svg>
