<svg width="84" height="109" viewBox="0 0 84 109" fill="none" xmlns="http://www.w3.org/2000/svg">
<path fill-rule="evenodd" clip-rule="evenodd" d="M78 0.980469L6 1.00074L6 61.6714C6 62.2209 78 61.9845 78 61.6714V0.980469Z" fill="#D7DBEC"/>
<path fill-rule="evenodd" clip-rule="evenodd" d="M84 9H0V109L5.5 103L10.5 109L16 103L21 109L26.5 103L31.5 109L37 103L42 109L47.5 103L52.5 109L58 103L63 109L68.5 103L73.5 109L79 103L84 109V9Z" fill="#336DFF"/>
<path d="M21.6465 28.5273L24.3534 31.4723L15.3588 39.7401L10.619 35.2157L13.3809 32.3223L15.41 34.2598L21.6465 28.5273Z" fill="white"/>
<rect x="32" y="32" width="38" height="4" fill="white"/>
<path d="M21.6465 45.5273L24.3534 48.4723L15.3588 56.7401L10.619 52.2157L13.3809 49.3223L15.41 51.2598L21.6465 45.5273Z" fill="white"/>
<rect x="32" y="49" width="38" height="4" fill="white"/>
<path d="M21.6465 62.5273L24.3534 65.4723L15.3588 73.7401L10.619 69.2157L13.3809 66.3223L15.41 68.2598L21.6465 62.5273Z" fill="white"/>
<rect x="32" y="66" width="38" height="4" fill="white"/>
</svg>
